<svg xmlns="http://www.w3.org/2000/svg" width="1250" height="1250"><path d="M123.448 153.083c-19.855 2.32-39.774 12.359-55.246 27.842-13.16 13.17-20.99 26.704-26.07 45.064L39.5 235.5 39.204 539c-.215 220.298.013 306.229.831 313.454 4.703 41.548 36.115 76.334 76.447 84.658 8.64 1.784 18.666 1.862 239.279 1.875l230.262.013-.262 39.75-.261 39.75-111 .5c-84.329.38-111.508.791-113.113 1.712-3.609 2.07-8.26 8.091-8.895 11.517-.334 1.799-.469 14.33-.3 27.847l.308 24.576 2.661 4.018c1.463 2.209 4.388 4.875 6.5 5.924 3.746 1.86 10.101 1.906 263.339 1.906h259.5l4.43-2.5c2.967-1.675 5.196-3.955 6.75-6.907 2.246-4.266 2.32-5.201 2.32-29.185 0-15.075-.416-25.88-1.064-27.593-1.303-3.449-5.511-8.01-9.136-9.904-2.277-1.19-20.036-1.411-113.25-1.411H664v-80l230.25-.013c220.602-.013 230.628-.091 239.268-1.875 28.569-5.896 53.781-25.67 67.083-52.612 5.451-11.042 7.969-19.706 9.397-32.33.775-6.848 1.008-98.242.798-313.17l-.296-303.5-2.64-9.5c-3.435-12.362-6.65-19.459-13.437-29.659-16.249-24.421-40.766-39.801-68.923-43.237-10.803-1.318-990.772-1.339-1002.052-.021m11.052 77.408c-.55.184-2.229.605-3.732.936-3.68.811-9.449 6.027-11.832 10.698-1.917 3.758-1.942 8.311-1.691 304.759l.255 300.944 3 4.259c1.65 2.343 4.983 5.307 7.407 6.586l4.408 2.327h985.37l4.408-2.327c2.424-1.279 5.757-4.243 7.407-6.586l3-4.259V243.186l-3.058-3.778c-4.133-5.107-7.347-7.367-12.019-8.451-3.571-.828-980.449-1.291-982.923-.466m476.668 86.245c9.706 20.997 14.316 40.012 13.619 56.169-.498 11.544-2.418 17.754-8.926 28.874-4.814 8.223-21.931 24.849-39.861 38.714-47.255 36.543-62.425 54.788-71.451 85.936-10.238 35.329-1.412 86.104 20.987 120.735 20.285 31.361 59.088 61.819 107.895 84.691 4.865 2.28 8.979 4.145 9.143 4.145.163 0-1.448-3.722-3.579-8.27-12.2-26.033-16.744-50.542-12.473-67.27 4.911-19.238 15.935-31.982 51.478-59.514 39.819-30.843 55.574-48.956 64.965-74.689 12.267-33.612 7.572-79.156-12.094-117.314-17.788-34.515-52.428-64.823-103.903-90.91l-19.851-10.06 4.051 8.763M431.455 775.455c-2.334 2.333-2.455 3.047-2.455 14.444 0 11.232.152 12.167 2.413 14.795l2.414 2.806h382.346l2.414-2.806c2.261-2.628 2.413-3.563 2.413-14.795 0-11.397-.121-12.111-2.455-14.444L816.091 773H433.909l-2.454 2.455" fill="undefined" fill-rule="evenodd"/></svg>